# xmcd
#
# Track frame offsets: 
#        150
#        18019
#        30926
#        48737
#        69225
#        85396
#        97045
#        112460
#        130100
#        146500
#        159832
#        175177
#        189567
#        204617
#        217501
#        233012
#        246164
#        258788
#        286047
#        299463
#        309675
#        323335
#
# Disc length: 4629 seconds
#
# Revision: 0
# Processed by: cddbd v1.5.2PL0 Copyright (c) Steve Scherf et al.
# Submitted via: ExactAudioCopyFreeDBPlugin 1.0
#
DISCID=2b121316
DTITLE=Various Artist - Danseband Jul 2
DYEAR=2011
DGENRE=Danseband
TTITLE0=Bugges Firo - Julekveld i Skogen
TTITLE1=Hanne Mette - Når Julen Ringes Inn
TTITLE2=Ørnulf Holthe - Barnetro
TTITLE3=Bjørns Orkester - Jul Mellom Romsdals Fjell og Fjord
TTITLE4=Rune Rudberg - Nå er det Jul igjen
TTITLE5=Ole Ivars - Den Gamle Nissen
TTITLE6=Anne Nørdsti - Jeg Tenner Et Lys
TTITLE7=Arctic Band - Ei Snøprinsesse
TTITLE8=Pegasus - Tanken Teller Mest
TTITLE9=Odd Arne Sørensen - Når Lysene Tennes Der Hjemme
TTITLE10=Ole Ivars med Lasse Johansen - Julebokk Gløtt
TTITLE11=Steinar Engelbrektson Band - En To Juletre
TTITLE12=Thor Wang and Nonstops - Jul Inni Skogen
TTITLE13=Trond Erics - Jul I Bygda Mi
TTITLE14=Ingemars - Pjokkens Julekvell
TTITLE15=Fryd and Gammen - Vi Skal Feire Jula Sammen
TTITLE16=Dænsebændet - Vi Tenner Våre Lykter
TTITLE17=Picazzo - Fire Lys
TTITLE18=Doodle Bugs - Ribbe, Pølse og Akevitt
TTITLE19=Vagabond - La Det Snø
TTITLE20=Jan Erik Olsens Orkester - Det Er Jul Igjen
TTITLE21=Trøste and Bære - Julekveld i Skogen
EXTD=
EXTT0=
EXTT1=
EXTT2=
EXTT3=
EXTT4=
EXTT5=
EXTT6=
EXTT7=
EXTT8=
EXTT9=
EXTT10=
EXTT11=
EXTT12=
EXTT13=
EXTT14=
EXTT15=
EXTT16=
EXTT17=
EXTT18=
EXTT19=
EXTT20=
EXTT21=
PLAYORDER=
